# xmcd CD database file
#
# Track frame offsets:
#	150
#	18256
#	29136
#	46389
#
# Disc length: 982 seconds
#
# Revision: 1
# Processed by: cddbd v1.5.2PL0 Copyright (c) Steve Scherf et al.
# Submitted via: CDex 1.70beta2
#
DISCID=2d03d404
DTITLE=ギャラクシーエンジェル - ギャラクシーエンジェルドラマCD～裏番組～黒
DYEAR=2005
DGENRE=Anime
TTITLE0=旅番組『いい夢旅気分 ～温泉編～』
TTITLE1=子供番組『お嬢さんといっしょ』
TTITLE2=語学番組『ちとせ語講座』
TTITLE3=旅番組『銀河紀行 ～海水浴場編～』
EXTD=YEAR: 2005
EXTT0=
EXTT1=
EXTT2=
EXTT3=
PLAYORDER=
